<svg xmlns="http://www.w3.org/2000/svg" viewBox="0 0 508.89 192.25"><defs><style>.cls-1{fill:#fff;}</style></defs><title>Fichier 1</title><g id="Calque_2" data-name="Calque 2"><g id="Calque_1-2" data-name="Calque 1"><path class="cls-1" d="M0,0H508.89V192.25H0ZM453.53.3V89.91c-.17,0-.22,0-.23,0-.18-.28-.35-.55-.51-.84a23.05,23.05,0,0,0-3.58-5.24A5.68,5.68,0,0,0,447,82.19a2.59,2.59,0,0,0-3.53,2.37A4,4,0,0,0,444,87a15.63,15.63,0,0,0,1.9,2.53,15,15,0,0,0,4.24,2.91c.24.12.47.28.7.42a3.5,3.5,0,0,1-1.15.16c-1.25.08-2.52.06-3.76.26-8.9,1.46-15,6.52-18.49,14.71a9.87,9.87,0,0,0-.94,5.32,8,8,0,0,0,10.19,6.65,6.79,6.79,0,0,0,5-5.33,6,6,0,0,1,3.93-4.51,9.05,9.05,0,0,1,2.1-.56c3.57-.47,7.78,1.21,7.74,6.58a18.45,18.45,0,0,1-.5,3.83q-2.4,10.76-4.9,21.51c-1.83,7.83-3.72,15.66-5.61,23.48a10.45,10.45,0,0,0-.37,3.43,7.59,7.59,0,0,0,9.25,6.84,7.48,7.48,0,0,0,6-6.07c.66-2.77,1.29-5.55,1.94-8.32q4.59-19.6,9.19-39.19a28.24,28.24,0,0,0,.26-12.8C469.25,102.51,466,97.67,460,95a2.85,2.85,0,0,1-.5-.37c1-.1,1.91-.17,2.79-.29a11.13,11.13,0,0,0,4.47-1.57,5.06,5.06,0,0,0,2-2.19,2.58,2.58,0,0,0-2.32-3.75,4.6,4.6,0,0,0-1.57.17,14.34,14.34,0,0,0-2.85,1.13c-1.63,1-3.17,2-4.75,3.08l-.87.55V.3ZM255,86.26l-.22.11c-.26-.24-.51-.49-.79-.71-1.28-1-2.52-2.07-3.86-3a10.11,10.11,0,0,0-2.71-1.19,2.42,2.42,0,0,0-2.76.89,2.58,2.58,0,0,0-.09,2.83,5.33,5.33,0,0,0,2,2.14,11.26,11.26,0,0,0,3.85,1.57c1,.21,2,.35,3,.52a6.1,6.1,0,0,1-1.44.32l-6,.68-11.65,1.34c-1.85.22-3.7.4-5.54.64a3.07,3.07,0,0,0-2.87,3.75c.12.88.2,1.78.3,2.67.33,2.86.65,5.73,1,8.59A3,3,0,0,0,230,110l.9,0c.08.59.16,1.11.22,1.63.36,3.17.71,6.33,1.07,9.49q.66,5.63,1.31,11.26c.34,2.86.65,5.73,1,8.59a2.38,2.38,0,0,0,2.66,2.23,4.19,4.19,0,0,0,.5,0l7.51-.86,11.45-1.32L266,140l11.35-1.31c3.26-.38,6.53-.74,9.78-1.15,1.88-.23,2.63-1.15,2.46-3-.2-2.08-.45-4.15-.69-6.22l-1.32-11.46-1.11-9.58c-.13-1.18-.24-2.35-.37-3.53l.69-.18a3,3,0,0,0,2.47-3.6q-.64-5.39-1.25-10.77c-.27-2.38-1.62-3.41-4-3.1-2.56.33-5.13.61-7.7.9-4.51.53-9,1-13.53,1.56-.4,0-.8.07-1.19.11l-1.07.11a4,4,0,0,1,1.07-.6c1.15-.58,2.33-1.13,3.43-1.79a7.18,7.18,0,0,0,2.49-2.53,4,4,0,0,0,.62-2.46,2.31,2.31,0,0,0-2.21-2.15,2.86,2.86,0,0,0-1.89.52,12.67,12.67,0,0,0-2.22,1.82c-1.17,1.35-2.21,2.81-3.3,4.22l-.5.64-.22-.08V.31a12.48,12.48,0,0,0-2.8,0ZM186,.29c0,.15-.06.18-.06.21q0,43.74,0,87.46a1.35,1.35,0,0,1,0,.29.09.09,0,0,1-.05.07,1.24,1.24,0,0,1-.15.05c-.46-.54-.92-1.1-1.41-1.64a21.27,21.27,0,0,0-4.53-4.15,8.53,8.53,0,0,0-2.44-1.06,2.56,2.56,0,0,0-3.13,2.76,4.58,4.58,0,0,0,1.33,2.82A10.53,10.53,0,0,0,179,89.52a19.2,19.2,0,0,0,6.13,1.59c.3,0,.6.1,1,.17-.19.32-.29.49-.4.65L176.22,107c-1.41,2.25-2.83,4.49-4.22,6.75a3.28,3.28,0,0,0-.51,1.46,1.67,1.67,0,0,0,1.65,1.67c.84.07,1.69.08,2.66.12-.24.44-.41.76-.59,1.06l-8.35,13.67a7.32,7.32,0,0,0-.49.86,1.75,1.75,0,0,0,1.52,2.52c.82,0,1.65,0,2.48,0,.25,0,.5.05.89.1-.24.42-.41.73-.59,1-2.69,4.5-5.36,9-8.06,13.49a2.17,2.17,0,0,0-.32,2.41c.5.84,1.32.87,2.18.87h17.68v9.13h10.69c0-1.54,0-3,0-4.51s0-3,0-4.62H210.4c.3,0,.6,0,.9,0a1.76,1.76,0,0,0,1.49-2.54,6.64,6.64,0,0,0-.43-.78q-4-6.75-8.05-13.5c-.18-.3-.33-.61-.58-1.08h1.15c.73,0,1.46,0,2.18,0a1.75,1.75,0,0,0,1.55-2.56,6.3,6.3,0,0,0-.5-.87L199.79,118c-.19-.3-.36-.61-.6-1,.47,0,.79-.06,1.12-.07.53,0,1.06,0,1.59,0a1.75,1.75,0,0,0,1.42-2.57,7.44,7.44,0,0,0-.52-.85L189.11,92.22c-.17-.27-.33-.55-.48-.81.1-.1.13-.18.18-.19a5.43,5.43,0,0,1,.68-.13A19,19,0,0,0,196,89.17a9.86,9.86,0,0,0,2.78-2.06,5.15,5.15,0,0,0,1.28-2.33A2.61,2.61,0,0,0,197,81.53a5.07,5.07,0,0,0-1.66.64A16.44,16.44,0,0,0,192.8,84c-1.16,1.09-2.22,2.28-3.32,3.43l-.58.56-.2-.09V2c0-.37,0-.73,0-1.1a4.8,4.8,0,0,0-.12-.64ZM347.72,121.35a8.17,8.17,0,0,1,1,0,3,3,0,0,0,3.53-3.09c.2-3,.52-6,.87-9a2.93,2.93,0,0,0-2.63-3.34L348,105.7c-2.87-.28-5.74-.55-8.61-.84a2.63,2.63,0,0,1-.62-.27c.7-.14,1.22-.23,1.73-.35a12.8,12.8,0,0,0,5.07-2.21,5.21,5.21,0,0,0,2-2.78,2.53,2.53,0,0,0-1.78-3.2,4.49,4.49,0,0,0-1.86,0,7.68,7.68,0,0,0-3.18,1.58c-1.41,1.1-2.75,2.28-4.13,3.43-.18.16-.38.29-.7.54V9.43c0-3,0-6.07,0-9.12h-2.78v99.74c0,.37,0,.73,0,1.1a7,7,0,0,1-.14.78c-.32-.44-.53-.73-.73-1a25.45,25.45,0,0,0-4.41-5.24,9,9,0,0,0-2.5-1.56,2.61,2.61,0,0,0-3.56,3.09,6,6,0,0,0,1.88,3.21,14.32,14.32,0,0,0,4.72,2.88c.32.12.62.27.93.41a.59.59,0,0,1-.44.12c-3.34-.32-6.67-.66-10-1a2.75,2.75,0,0,0-3.25,2.57c-.2,1.58-.34,3.17-.5,4.75s-.36,3.43-.45,5.15a2.68,2.68,0,0,0,2.42,2.89l1.25.21c0,.32,0,.52,0,.71q-.54,5.74-1.09,11.48c-.18,1.92-.39,3.83-.56,5.74a4.47,4.47,0,0,1-4.63,4.36c-.76,0-1.53,0-2.29,0a11.6,11.6,0,0,0-5.35,1.32c-4.15,2.26-6.47,5.68-6.22,10.48.23,4.64,2.8,7.81,6.88,9.82a13.42,13.42,0,0,0,5.6,1.16l16.21.54a18.85,18.85,0,0,0,5.79-.71,17,17,0,0,0,12.42-14.84c.24-3,.57-6.07.86-9.1q.68-6.93,1.36-13.85C347.42,124.18,347.57,122.8,347.72,121.35ZM389,.29c0,.49-.05,1-.05,1.4V104.57c0,.53,0,1.06,0,1.59,0,.21-.07.42-.12.79-.35-.4-.58-.66-.81-.94a28.56,28.56,0,0,0-4.65-4.61,7.28,7.28,0,0,0-2.9-1.48,2.6,2.6,0,0,0-3.17,3.5,5.49,5.49,0,0,0,1.26,2.1,10.24,10.24,0,0,0,2.53,1.9,33,33,0,0,0,3.48,1.42l1,.34-1.07.3a14.92,14.92,0,0,0-10.14,8,25.66,25.66,0,0,0-2.51,8.43,58.3,58.3,0,0,0-.28,11.81c.11,1.76.27,3.52.23,5.27a7.58,7.58,0,0,1-4.25,6.8,2.64,2.64,0,0,0-1.55,2.37c0,1.89,0,3.78,0,5.67a2.58,2.58,0,0,0,2.53,2.56c.3,0,.6,0,.9,0h10c1.53,4.4,4.44,7.17,9.06,7.49,5.44.38,8.92-2.48,10.77-7.49h1.25c3.84,0,7.69,0,11.54,0a2.65,2.65,0,0,0,2.87-2.84c0-1.76,0-3.52,0-5.27a2.61,2.61,0,0,0-1.92-2.6,3,3,0,0,1-.9-.39,7.94,7.94,0,0,1-3.35-6.66c0-.73.05-1.46.1-2.19a70.36,70.36,0,0,0-.09-14.29,26.41,26.41,0,0,0-2.4-8.38,15,15,0,0,0-9.86-8.17l-1.43-.36a2.28,2.28,0,0,1,.88-.44,15.73,15.73,0,0,0,4.33-2,7.16,7.16,0,0,0,2.37-2.49,3,3,0,0,0-.13-3.63,2.92,2.92,0,0,0-3.58-.46,12.12,12.12,0,0,0-2.66,1.72c-1.31,1.17-2.49,2.48-3.72,3.73l-.58.56-.2-.09V.29ZM132.72.32V63.48s0,0-.07.06l-.14,0c-.23-.33-.48-.68-.72-1A22.26,22.26,0,0,0,128,58a8.72,8.72,0,0,0-2.39-1.56A2.58,2.58,0,0,0,122,59.24a5.33,5.33,0,0,0,1.35,2.93,11.65,11.65,0,0,0,3.25,2.59,19.41,19.41,0,0,0,5.66,2.1,2.23,2.23,0,0,1,1.26.45l-1.16.37A74.52,74.52,0,0,0,122,71.5a46.76,46.76,0,0,0-14.47,9.84,29.51,29.51,0,0,0-8.43,17.39c-.1.85-.18,1.7-.27,2.58h-.67c-2.36-.11-3.42.77-3.74,3.12,0,.13,0,.26,0,.39-.3,2.47-.61,4.93-.92,7.4-.22,1.74-.43,3.49-.65,5.23a3.11,3.11,0,0,0,.92,2.81,3.44,3.44,0,0,0,2.09.83c3.94.5,7.89,1,11.83,1.47L118,123.85l12,1.5,10.45,1.31c2,.26,4.08.54,6.12.72a2.84,2.84,0,0,0,3.25-2.63c.26-1.74.46-3.48.68-5.23.35-2.79.72-5.58,1.05-8.38a3,3,0,0,0-2.71-3.5c-.4-.06-.79-.09-1.19-.16a5.25,5.25,0,0,1-.6-.17.86.86,0,0,1,0-.27c.08-.25.17-.5.26-.75a33.31,33.31,0,0,0,1.11-18.6c-.5-2.2-1-4.38-1.49-6.59a13.09,13.09,0,0,1-.14-4.46,5.28,5.28,0,0,1,3.25-4.42c.85-.35,1.77-.54,2.65-.82a2,2,0,0,1,2,.44,7.82,7.82,0,0,0,12.38-7.65,7.83,7.83,0,0,0-15-1.44c-.14.36-.28.73-.43,1.14-1.76.19-3.48.52-5.21.62a16.85,16.85,0,0,0,1.27-2.44,2.52,2.52,0,0,0-2.31-3.31,2.92,2.92,0,0,0-1.18.12,14,14,0,0,0-3,1.33c-1.65,1.15-3.18,2.48-4.76,3.74-.25.19-.48.4-.91.76V1.92c0-.33,0-.66,0-1a5.43,5.43,0,0,0-.15-.69h-2ZM39.35,96a29.09,29.09,0,0,0-15.08,14.41,28.45,28.45,0,0,0-1.69,20.82,29.23,29.23,0,0,0,56.53-1.67,28.16,28.16,0,0,0-1.88-18.65c-4.09-8.76-11-14.14-20.25-16.51A16.49,16.49,0,0,0,57,92.74c-.09-1.45-.22-2.91-.34-4.36a2.05,2.05,0,0,0-2.25-2c-.79,0-1.58.11-2.38.16l-1.66.08a4.56,4.56,0,0,0,.92-3.25,5.21,5.21,0,0,0-1.62-2.83l1.38-.36a17.47,17.47,0,0,0,5.34-2.35,8.76,8.76,0,0,0,2.49-2.4,4.46,4.46,0,0,0,.81-2.62,2.45,2.45,0,0,0-2.55-2.48,4.67,4.67,0,0,0-2,.57,8.68,8.68,0,0,0-2.14,1.6c-1.25,1.32-2.4,2.74-3.59,4.12l-.49.54-.21-.07V.3H46V76.45c0,.4,0,.8,0,1.19,0,.2-.08.4-.16.84a14.73,14.73,0,0,0-1.06-1.2c-1.19-1.1-2.36-2.23-3.63-3.24a13.6,13.6,0,0,0-2.7-1.66,5.55,5.55,0,0,0-2.2-.49,2.48,2.48,0,0,0-2.47,2.76,4.15,4.15,0,0,0,.88,2.18A7.78,7.78,0,0,0,37.27,79a15.65,15.65,0,0,0,5,1.62c.74.12,1.48.21,2.34.32a4.34,4.34,0,0,0,0,6.11c-.4.07-.68.14-1,.16l-2.87.22a2.08,2.08,0,0,0-2.17,2.39c.06,1.43.17,2.85.3,4.27C39,94.65,39.19,95.25,39.35,96Z"/><path d="M453.53.3h2.78V91.72l.87-.55c1.58-1,3.12-2.13,4.75-3.08A14.34,14.34,0,0,1,464.78,87a4.6,4.6,0,0,1,1.57-.17,2.58,2.58,0,0,1,2.32,3.75,5.06,5.06,0,0,1-2,2.19,11.13,11.13,0,0,1-4.47,1.57c-.88.12-1.77.19-2.79.29a2.85,2.85,0,0,0,.5.37c6,2.71,9.3,7.55,10.7,13.84a28.24,28.24,0,0,1-.26,12.8q-4.62,19.59-9.19,39.19c-.65,2.77-1.28,5.55-1.94,8.32a7.48,7.48,0,0,1-6,6.07,7.59,7.59,0,0,1-9.25-6.84,10.45,10.45,0,0,1,.37-3.43c1.89-7.82,3.78-15.65,5.61-23.48q2.5-10.74,4.9-21.51a18.45,18.45,0,0,0,.5-3.83c0-5.37-4.17-7-7.74-6.58a9.05,9.05,0,0,0-2.1.56,6,6,0,0,0-3.93,4.51,6.79,6.79,0,0,1-5,5.33,8,8,0,0,1-10.19-6.65,9.87,9.87,0,0,1,.94-5.32c3.53-8.19,9.59-13.25,18.49-14.71,1.24-.2,2.51-.18,3.76-.26a3.5,3.5,0,0,0,1.15-.16c-.23-.14-.46-.3-.7-.42a15,15,0,0,1-4.24-2.91A15.63,15.63,0,0,1,444,87a4,4,0,0,1-.54-2.39A2.59,2.59,0,0,1,447,82.19a5.68,5.68,0,0,1,2.25,1.59A23.05,23.05,0,0,1,452.79,89c.16.29.33.56.51.84,0,0,.06,0,.23,0Zm9.52,98.62a62,62,0,0,1-16.34,7.19,64.43,64.43,0,0,1-17.58,2.33,8.67,8.67,0,0,0-.88,5,6.3,6.3,0,0,0,5.88,5A5.45,5.45,0,0,0,440,113.9a7.25,7.25,0,0,1,3.07-4.49,9.73,9.73,0,0,1,6.9-1.65,7.8,7.8,0,0,1,6.1,3.81c.1.17.22.32.37.54A59.47,59.47,0,0,0,467.56,105,16.27,16.27,0,0,0,463.05,98.92Zm-1.65-1c-3.56-2.77-12.21-4.33-19-2-5.29,1.8-11.42,7.1-12.29,10.83A61.49,61.49,0,0,0,461.4,97.87Zm6.81,8.85A63.73,63.73,0,0,1,457,113.83a15.42,15.42,0,0,1-.12,5.26c-.41,1.94-.84,3.88-1.26,5.82-.07.33-.1.67-.17,1.11.28-.08.41-.11.53-.16a58.51,58.51,0,0,0,12.75-7,1.42,1.42,0,0,0,.6-1.08,25.45,25.45,0,0,0,0-6.64A18.54,18.54,0,0,0,468.21,106.72ZM452.3,139.41a5.58,5.58,0,0,0,.65-.09A60.27,60.27,0,0,0,465.22,134a1.43,1.43,0,0,0,.71-1c.83-3.61,1.69-7.22,2.53-10.83.06-.27.07-.56.12-1-.28.16-.42.23-.55.32a60.46,60.46,0,0,1-12.5,6.47,1.17,1.17,0,0,0-.82,1c-.43,2-.9,3.93-1.36,5.9Zm-3.09,13a4.14,4.14,0,0,0,.62,0,62.66,62.66,0,0,0,11.85-3.94,1.39,1.39,0,0,0,.87-1.09c.65-2.87,1.33-5.74,2-8.61l.6-2.63c-.38.16-.62.24-.84.36a60,60,0,0,1-11.76,4.77,1.24,1.24,0,0,0-1,1.07c-.47,2.1-1,4.19-1.47,6.29C449.83,149.85,449.53,151.07,449.21,152.41Zm12.53-1.92a2.29,2.29,0,0,0-.34,0,64.09,64.09,0,0,1-12,3.77,1,1,0,0,0-.83.82c-.73,3.13-1.5,6.25-2.25,9.38,0,.15,0,.31-.07.55.39,0,.71,0,1-.06a64.3,64.3,0,0,0,11.18-2.76,1.26,1.26,0,0,0,.89-1.05c.77-3.35,1.56-6.71,2.34-10.06C461.7,150.94,461.71,150.75,461.74,150.49ZM458.63,164a68,68,0,0,1-12.81,3,4.5,4.5,0,0,0-.08.52,6,6,0,0,0,4.89,6,6,6,0,0,0,6.71-4.06c.14-.44.24-.9.34-1.35C458,166.85,458.27,165.57,458.63,164Zm-6.87-72.81a1.64,1.64,0,0,0,0-.44,23.66,23.66,0,0,0-3.7-5.72,8,8,0,0,0-1.12-1,1.08,1.08,0,0,0-1.37-.14,1.1,1.1,0,0,0-.26,1.37,8.32,8.32,0,0,0,1,1.92A12.66,12.66,0,0,0,451.76,91.23Zm6.55,1.4c2.46.55,6.4-.37,8-1.86a6.27,6.27,0,0,0,.6-.66,1,1,0,0,0,.17-1.11.9.9,0,0,0-1-.48,9.67,9.67,0,0,0-1.91.46,24,24,0,0,0-5.59,3.35A1.59,1.59,0,0,0,458.31,92.63Z"/><path d="M255,86.26V.31a12.48,12.48,0,0,1,2.8,0v86l.22.08.5-.64c1.09-1.41,2.13-2.87,3.3-4.22A12.67,12.67,0,0,1,264,79.75a2.86,2.86,0,0,1,1.89-.52,2.31,2.31,0,0,1,2.21,2.15,4,4,0,0,1-.62,2.46A7.18,7.18,0,0,1,265,86.37c-1.1.66-2.28,1.21-3.43,1.79a4,4,0,0,0-1.07.6l1.07-.11c.39,0,.79-.06,1.19-.11,4.51-.52,9-1,13.53-1.56,2.57-.29,5.14-.57,7.7-.9,2.39-.31,3.74.72,4,3.1q.61,5.38,1.25,10.77a3,3,0,0,1-2.47,3.6l-.69.18c.13,1.18.24,2.35.37,3.53l1.11,9.58,1.32,11.46c.24,2.07.49,4.14.69,6.22.17,1.87-.58,2.79-2.46,3-3.25.41-6.52.77-9.78,1.15L266,140l-9.39,1.07-11.45,1.32-7.51.86a4.19,4.19,0,0,1-.5,0,2.38,2.38,0,0,1-2.66-2.23c-.35-2.86-.66-5.73-1-8.59q-.65-5.64-1.31-11.26c-.36-3.16-.71-6.32-1.07-9.49-.06-.52-.14-1-.22-1.63l-.9,0a3,3,0,0,1-2.84-2.59c-.35-2.86-.67-5.73-1-8.59-.1-.89-.18-1.79-.3-2.67a3.07,3.07,0,0,1,2.87-3.75c1.84-.24,3.69-.42,5.54-.64l11.65-1.34,6-.68a6.1,6.1,0,0,0,1.44-.32c-1-.17-2-.31-3-.52a11.26,11.26,0,0,1-3.85-1.57,5.33,5.33,0,0,1-2-2.14,2.58,2.58,0,0,1,.09-2.83,2.42,2.42,0,0,1,2.76-.89,10.11,10.11,0,0,1,2.71,1.19c1.34.9,2.58,2,3.86,3,.28.22.53.47.79.71Zm.07,53.3L268.17,138c-1.84-16-3.66-31.84-5.49-47.83l-13.15,1.51C251.36,107.71,253.18,123.57,255,139.56Zm11.1-33.63c.41,3.67.81,7.22,1.21,10.77s.81,7,1.23,10.56.75,7.08,1.26,10.66l4.77-.55L286.93,136c.89-.11,1.14-.42,1-1.33-.13-1.26-.28-2.51-.43-3.76q-.65-5.62-1.3-11.25c-.5-4.31-1-8.62-1.47-12.94-.11-.91-.24-1.82-.37-2.85Zm-33.59,3.86c0,.34,0,.53.05.72.43,3.82.85,7.64,1.29,11.46q1,9.24,2.13,18.47c.13,1.09.42,1.32,1.47,1.2l13.34-1.53c.84-.09,1.68-.22,2.61-.34-1.23-10.71-2.45-21.29-3.67-32Zm33.39-5.48,4.18-.45c5.11-.58,10.21-1.18,15.31-1.75,2.08-.24,2.41-.66,2.14-2.77-.2-1.57-.37-3.16-.55-4.74-.21-1.81-.4-3.62-.62-5.43a1.49,1.49,0,0,0-1.89-1.5l-4.84.53L268,89.55l-3.71.45C264.83,94.79,265.37,99.48,265.92,104.31Zm-18-12.43c-1.07.11-2,.2-3,.31L233.4,93.52c-1.58.18-3.16.35-4.73.57a1.33,1.33,0,0,0-1.26,1.5,9.53,9.53,0,0,0,.09,1.19c.38,3.32.77,6.64,1.15,10,.15,1.34.7,1.77,2.06,1.62l16.58-1.88c.74-.09,1.47-.21,2.27-.32C249,101.37,248.47,96.71,247.92,91.88Zm5.59-4.09c0-.21,0-.3-.07-.33a19.26,19.26,0,0,0-5.54-4.11,3.48,3.48,0,0,0-1-.32c-.86-.11-1.35.54-.93,1.29A4.38,4.38,0,0,0,247,85.61,11,11,0,0,0,253.51,87.79Zm6.3-.78a8.23,8.23,0,0,0,2.31-.81,9.15,9.15,0,0,0,3.65-2.83,5.82,5.82,0,0,0,.68-1.31.86.86,0,0,0-.2-1,.88.88,0,0,0-1-.11,5.15,5.15,0,0,0-1,.53,20,20,0,0,0-4.47,5.27S259.81,86.86,259.81,87Z"/><path d="M186,.29h2.56a4.8,4.8,0,0,1,.12.64c0,.37,0,.73,0,1.1V87.87l.2.09.58-.56c1.1-1.15,2.16-2.34,3.32-3.43a16.44,16.44,0,0,1,2.49-1.8,5.07,5.07,0,0,1,1.66-.64,2.61,2.61,0,0,1,3.15,3.25,5.15,5.15,0,0,1-1.28,2.33A9.86,9.86,0,0,1,196,89.17a19,19,0,0,1-6.55,1.92,5.43,5.43,0,0,0-.68.13c-.05,0-.08.09-.18.19.15.26.31.54.48.81l13.69,21.23a7.44,7.44,0,0,1,.52.85,1.75,1.75,0,0,1-1.42,2.57c-.53,0-1.06,0-1.59,0-.33,0-.65,0-1.12.07.24.43.41.74.6,1l8.32,13.67a6.3,6.3,0,0,1,.5.87,1.75,1.75,0,0,1-1.55,2.56c-.72,0-1.45,0-2.18,0h-1.15c.25.47.4.78.58,1.08q4,6.75,8.05,13.5a6.64,6.64,0,0,1,.43.78A1.76,1.76,0,0,1,211.3,153c-.3,0-.6,0-.9,0H192.88c-.08,1.6,0,3.11,0,4.62s0,3,0,4.51H182.15V153H164.47c-.86,0-1.68,0-2.18-.87a2.17,2.17,0,0,1,.32-2.41c2.7-4.49,5.37-9,8.06-13.49.18-.3.35-.61.59-1-.39-.05-.64-.09-.89-.1-.83,0-1.66,0-2.48,0a1.75,1.75,0,0,1-1.52-2.52,7.32,7.32,0,0,1,.49-.86l8.35-13.67c.18-.3.35-.62.59-1.06-1,0-1.82,0-2.66-.12a1.67,1.67,0,0,1-1.65-1.67,3.28,3.28,0,0,1,.51-1.46c1.39-2.26,2.81-4.5,4.22-6.75l9.48-15.07c.11-.16.21-.33.4-.65-.4-.07-.7-.14-1-.17A19.2,19.2,0,0,1,179,89.52a10.53,10.53,0,0,1-3.49-2.42,4.58,4.58,0,0,1-1.33-2.82,2.56,2.56,0,0,1,3.13-2.76,8.53,8.53,0,0,1,2.44,1.06,21.27,21.27,0,0,1,4.53,4.15c.49.54.95,1.1,1.41,1.64a1.24,1.24,0,0,0,.15-.05.09.09,0,0,0,.05-.07,1.35,1.35,0,0,0,0-.29q0-43.72,0-87.46S186,.44,186,.29ZM168,133.39c1.26,0,2.25,0,3.24,0A1.74,1.74,0,0,1,173,135a2.78,2.78,0,0,1-.39,1.39c-.86,1.53-1.79,3-2.68,4.54a5,5,0,0,0-.31.74l.52,0a55.56,55.56,0,0,0,11.33-2.51A40.93,40.93,0,0,0,194,132.57a29,29,0,0,0,6.87-7.66,1.35,1.35,0,0,0,0-1.7,29,29,0,0,1-1.65-2.72,1.63,1.63,0,0,0-1.41-.89,21.06,21.06,0,0,1-10.58-4.47,26.53,26.53,0,0,1-7.13-8.82c-.17-.34-.36-.68-.63-1.17l-6.26,9.94a21.37,21.37,0,0,0,2.17.07,1.88,1.88,0,0,1,1.76,3.11,2.26,2.26,0,0,0-.16.26l-8.39,13.74C168.41,132.56,168.25,132.87,168,133.39ZM202.56,126c-.18,0-.22,0-.24.06s-.22.25-.31.39a32.22,32.22,0,0,1-11.84,10.82,53.18,53.18,0,0,1-20.91,6.22,1.32,1.32,0,0,0-1.23.63c-1.27,2.18-2.58,4.33-3.86,6.5a3.1,3.1,0,0,0-.22.61c2.34.23,46.33.14,47.14-.11l-.58-1q-4-6.72-8-13.41a2.23,2.23,0,0,1-.34-2.33c.48-.91,1.34-1,2.23-1s1.62,0,2.66,0ZM187.38,92.77c-.18.21-.28.3-.35.4-2,3.2-4,6.4-6.06,9.58a1.2,1.2,0,0,0,0,1.29,26.24,26.24,0,0,0,4.68,7.23,20.38,20.38,0,0,0,9.84,6.09c.62.17,1.26.28,2,.43,0-.35,0-.58,0-.8a1.69,1.69,0,0,1,1.61-1.8c.43,0,.86,0,1.29,0l1.44,0ZM191,160.44a44.43,44.43,0,0,0-.07-7.31,36.21,36.21,0,0,0-7.06.11c0,2.37,0,4.77,0,7.2ZM190.47,89l.11.19c.29-.05.58-.08.86-.15a12.24,12.24,0,0,0,5.21-2.33,4.75,4.75,0,0,0,1.69-2.17c.28-.85-.3-1.52-1.15-1.24a5.57,5.57,0,0,0-1.92,1c-1.36,1.17-2.63,2.42-3.92,3.66C191,88.23,190.76,88.61,190.47,89Zm-6.64.23a1.6,1.6,0,0,0-.15-.42A23.53,23.53,0,0,0,178.75,84a9.18,9.18,0,0,0-1.5-.76.94.94,0,0,0-1.17.26.88.88,0,0,0,0,1.11,9.47,9.47,0,0,0,1.45,1.86A12.44,12.44,0,0,0,183.83,89.19Z"/><path d="M347.72,121.35c-.15,1.45-.3,2.83-.44,4.21q-.67,6.91-1.36,13.85c-.29,3-.62,6.07-.86,9.1a17,17,0,0,1-12.42,14.84,18.85,18.85,0,0,1-5.79.71l-16.21-.54a13.42,13.42,0,0,1-5.6-1.16c-4.08-2-6.65-5.18-6.88-9.82-.25-4.8,2.07-8.22,6.22-10.48a11.6,11.6,0,0,1,5.35-1.32c.76,0,1.53,0,2.29,0a4.47,4.47,0,0,0,4.63-4.36c.17-1.91.38-3.82.56-5.74q.56-5.73,1.09-11.48c0-.19,0-.39,0-.71l-1.25-.21a2.68,2.68,0,0,1-2.42-2.89c.09-1.72.29-3.44.45-5.15s.3-3.17.5-4.75a2.75,2.75,0,0,1,3.25-2.57c3.33.3,6.66.64,10,1a.59.59,0,0,0,.44-.12c-.31-.14-.61-.29-.93-.41a14.32,14.32,0,0,1-4.72-2.88,6,6,0,0,1-1.88-3.21,2.61,2.61,0,0,1,3.56-3.09,9,9,0,0,1,2.5,1.56,25.45,25.45,0,0,1,4.41,5.24c.2.29.41.58.73,1a7,7,0,0,0,.14-.78c0-.37,0-.73,0-1.1V.31h2.78c0,3.05,0,6.08,0,9.12v92.21c.32-.25.52-.38.7-.54,1.38-1.15,2.72-2.33,4.13-3.43a7.68,7.68,0,0,1,3.18-1.58,4.49,4.49,0,0,1,1.86,0,2.53,2.53,0,0,1,1.78,3.2,5.21,5.21,0,0,1-2,2.78,12.8,12.8,0,0,1-5.07,2.21c-.51.12-1,.21-1.73.35a2.63,2.63,0,0,0,.62.27c2.87.29,5.74.56,8.61.84l2.48.23a2.93,2.93,0,0,1,2.63,3.34c-.35,3-.67,6-.87,9a3,3,0,0,1-3.53,3.09A8.17,8.17,0,0,0,347.72,121.35Zm-1.75-.28-25.78-2.52c-.07.45-.14.78-.17,1.1-.56,5.71-1.1,11.41-1.66,17.12a6.13,6.13,0,0,1-6.07,5.68c-1,0-1.92,0-2.88.05a7.92,7.92,0,0,0-1.13.18,17.24,17.24,0,0,1-1,18.58,4.6,4.6,0,0,0,.57.19c1.05.12,2.1.28,3.16.32,5.36.2,10.73.37,16.1.55.28,0,.57,0,.94-.07a17.08,17.08,0,0,1,15.81-19.78C344.58,135.32,345.27,128.27,346,121.07ZM319.2,104.62v0l-.4,0c-1,0-1.3.18-1.46,1.18-.06.36-.09.72-.13,1.08-.24,2.48-.47,4.95-.74,7.42-.2,1.89,0,2.17,1.95,2.34l5.24.49,11.58,1.14,9.2.92c1.48.15,3,.3,4.45.43,1.11.09,1.49-.26,1.6-1.38l.12-1.29c.25-2.6.51-5.21.74-7.82.09-1-.25-1.36-1.19-1.46-3.46-.35-6.92-.68-10.39-1l-9-.88ZM330,162.15c.8-.18,1.55-.3,2.27-.53,5.65-1.86,9.43-5.53,10.76-11.43a42.61,42.61,0,0,0,.53-4.54c0-.41.06-.83.09-1.25C335.07,144.74,328.11,153.36,330,162.15Zm-23.58-19a9.23,9.23,0,0,0-1,17.33C309.19,156.52,310.1,148.62,306.42,143.18Zm24.31-40.93.18-.19c-.28-.41-.55-.81-.84-1.21a21.32,21.32,0,0,0-3.69-4.13,5.77,5.77,0,0,0-1.69-1c-.82-.28-1.39.29-1.16,1.13a4.12,4.12,0,0,0,.67,1.42A11.74,11.74,0,0,0,330.73,102.25Zm6.69.71c2.86-.25,5.35-.86,7.41-2.67a3.14,3.14,0,0,0,.6-.66c.31-.46.7-.93.34-1.53s-.81-.57-1.61-.27a10.49,10.49,0,0,0-1.69.81,25.53,25.53,0,0,0-4.69,3.79A5.71,5.71,0,0,0,337.42,103Z"/><path d="M389,.29h2.77V106.14l.2.09.58-.56c1.23-1.25,2.41-2.56,3.72-3.73a12.12,12.12,0,0,1,2.66-1.72,2.92,2.92,0,0,1,3.58.46,3,3,0,0,1,.13,3.63,7.16,7.16,0,0,1-2.37,2.49,15.73,15.73,0,0,1-4.33,2,2.28,2.28,0,0,0-.88.44l1.43.36a15,15,0,0,1,9.86,8.17,26.41,26.41,0,0,1,2.4,8.38,70.36,70.36,0,0,1,.09,14.29c-.05.73-.08,1.46-.1,2.19a7.94,7.94,0,0,0,3.35,6.66,3,3,0,0,0,.9.39,2.61,2.61,0,0,1,1.92,2.6c0,1.75,0,3.51,0,5.27a2.65,2.65,0,0,1-2.87,2.84c-3.85,0-7.7,0-11.54,0h-1.25c-1.85,5-5.33,7.87-10.77,7.49-4.62-.32-7.53-3.09-9.06-7.49h-10c-.3,0-.6,0-.9,0a2.58,2.58,0,0,1-2.53-2.56c0-1.89,0-3.78,0-5.67a2.64,2.64,0,0,1,1.55-2.37,7.58,7.58,0,0,0,4.25-6.8c0-1.75-.12-3.51-.23-5.27a58.3,58.3,0,0,1,.28-11.81,25.66,25.66,0,0,1,2.51-8.43,14.92,14.92,0,0,1,10.14-8l1.07-.3-1-.34a33,33,0,0,1-3.48-1.42,10.24,10.24,0,0,1-2.53-1.9,5.49,5.49,0,0,1-1.26-2.1,2.6,2.6,0,0,1,3.17-3.5,7.28,7.28,0,0,1,2.9,1.48A28.56,28.56,0,0,1,388,106c.23.28.46.54.81.94.05-.37.11-.58.12-.79,0-.53,0-1.06,0-1.59V1.69C389,1.24,389,.78,389,.29ZM409.6,149.46c-.34-.46-.58-.77-.81-1.09A8.48,8.48,0,0,1,407,143.6a31.85,31.85,0,0,1,.08-3.38,67.88,67.88,0,0,0-.09-13.89,25.32,25.32,0,0,0-2.14-7.62,13.31,13.31,0,0,0-9.31-7.54,24.08,24.08,0,0,0-9-.31A13.52,13.52,0,0,0,375.51,119a23.1,23.1,0,0,0-1.59,5,44.58,44.58,0,0,0-.77,10.69c.08,2.61.25,5.22.38,7.84a8.91,8.91,0,0,1-2,6.09l-.58.81Zm-19.11,9.17H412c.87,0,1.21-.34,1.22-1.21,0-1.65,0-3.31,0-5,0-.8-.34-1.12-1.15-1.18-.23,0-.46,0-.7,0H369.57a6.76,6.76,0,0,0-.9,0,1,1,0,0,0-.95,1.06c0,1.75,0,3.51,0,5.27,0,.66.34.95,1,1a8.77,8.77,0,0,0,.89,0Zm-9,1.79c.61,3.25,4.45,5.92,8.18,5.78,3.49-.13,7.19-3,7.48-5.78Zm5.26-53c0-.11,0-.19,0-.23a22.16,22.16,0,0,0-5.38-5.07,4.56,4.56,0,0,0-1.18-.5,1,1,0,0,0-1.09.26A.92.92,0,0,0,379,103a9,9,0,0,0,1.38,1.79,12,12,0,0,0,6,2.67A1.16,1.16,0,0,0,386.74,107.45Zm6.79,0c.11,0,.2.09.28.08.33,0,.65-.11,1-.19a11,11,0,0,0,5.54-2.9,5.23,5.23,0,0,0,1-1.56.83.83,0,0,0-1-1.21,5.3,5.3,0,0,0-1.79.78,22.71,22.71,0,0,0-4.92,4.72A.82.82,0,0,0,393.53,107.41Z"/><path d="M132.72.32l.65-.08h2a5.43,5.43,0,0,1,.15.69c0,.33,0,.66,0,1V64.71c.43-.36.66-.57.91-.76,1.58-1.26,3.11-2.59,4.76-3.74a14,14,0,0,1,3-1.33,2.92,2.92,0,0,1,1.18-.12,2.52,2.52,0,0,1,2.31,3.31,16.85,16.85,0,0,1-1.27,2.44c1.73-.1,3.45-.43,5.21-.62.15-.41.29-.78.43-1.14a7.83,7.83,0,0,1,15,1.44,7.82,7.82,0,0,1-12.38,7.65,2,2,0,0,0-2-.44c-.88.28-1.8.47-2.65.82a5.28,5.28,0,0,0-3.25,4.42A13.09,13.09,0,0,0,147,81.1c.44,2.21,1,4.39,1.49,6.59a33.31,33.31,0,0,1-1.11,18.6c-.09.25-.18.5-.26.75a.86.86,0,0,0,0,.27,5.25,5.25,0,0,0,.6.17c.4.07.79.1,1.19.16a3,3,0,0,1,2.71,3.5c-.33,2.8-.7,5.59-1.05,8.38-.22,1.75-.42,3.49-.68,5.23a2.84,2.84,0,0,1-3.25,2.63c-2-.18-4.08-.46-6.12-.72L130,125.35l-12-1.5-10.36-1.29c-3.94-.49-7.89-1-11.83-1.47a3.44,3.44,0,0,1-2.09-.83,3.11,3.11,0,0,1-.92-2.81c.22-1.74.43-3.49.65-5.23.31-2.47.62-4.93.92-7.4,0-.13,0-.26,0-.39.32-2.35,1.38-3.23,3.74-3.12h.67c.09-.88.17-1.73.27-2.58a29.51,29.51,0,0,1,8.43-17.39A46.76,46.76,0,0,1,122,71.5a74.52,74.52,0,0,1,10.34-3.82l1.16-.37a2.23,2.23,0,0,0-1.26-.45,19.41,19.41,0,0,1-5.66-2.1,11.65,11.65,0,0,1-3.25-2.59A5.33,5.33,0,0,1,122,59.24a2.58,2.58,0,0,1,3.63-2.84A8.72,8.72,0,0,1,128,58a22.26,22.26,0,0,1,3.8,4.58c.24.36.49.71.72,1l.14,0s.07,0,.07-.06Zm18.62,65.42a3.77,3.77,0,0,0-.45,0c-2,.28-4.07.53-6.1.86a92.73,92.73,0,0,0-18.58,5,53.41,53.41,0,0,0-14,7.77c-6,4.76-10,10.73-11.2,18.4a13.74,13.74,0,0,0-.26,3.82c14.87,1.86,29.69,3.91,44.62,4.92.14-.33.26-.57.35-.82a31.65,31.65,0,0,0,.75-18.87A41.26,41.26,0,0,1,145,79.53a12.36,12.36,0,0,1,.31-4.24,7.23,7.23,0,0,1,5.29-5.17c.63-.19,1.27-.34,1.86-.5ZM98,103.05c-1.18-.07-1.57.23-1.76,1.26,0,.23-.08.46-.11.69q-.77,6.16-1.54,12.33c-.17,1.36.14,1.81,1.5,2l.39.06q6,.72,11.94,1.46l19.92,2.51,17.45,2.18c1.93.24,2.28,0,2.51-1.95s.5-4.07.76-6.11.55-4.34.81-6.51a1.3,1.3,0,0,0-1.2-1.62c-.16,0-.32-.07-.49-.09l-11.83-1.46-10.16-1.27L114,105.05l-10.36-1.3Zm67.47-37.49a6.09,6.09,0,1,0-6,6.1A6.1,6.1,0,0,0,165.45,65.56Zm-34.55-1a19.69,19.69,0,0,0-5.15-6.21A3,3,0,0,0,125,58c-.78-.25-1.38.2-1.22,1a4.52,4.52,0,0,0,.75,1.69A11.08,11.08,0,0,0,130.9,64.6Zm6.76.79s.09.12.14.12A11,11,0,0,0,145,63a3.79,3.79,0,0,0,.89-1.17A.88.88,0,0,0,145,60.5a3.2,3.2,0,0,0-1.14.29,20.63,20.63,0,0,0-6.21,4.51S137.66,65.36,137.66,65.39Z"/><path d="M39.35,96c-.16-.76-.36-1.36-.42-2-.13-1.42-.24-2.84-.3-4.27a2.08,2.08,0,0,1,2.17-2.39l2.87-.22c.29,0,.57-.09,1-.16a4.34,4.34,0,0,1,0-6.11c-.86-.11-1.6-.2-2.34-.32a15.65,15.65,0,0,1-5-1.62,7.78,7.78,0,0,1-2.61-2.12,4.15,4.15,0,0,1-.88-2.18,2.48,2.48,0,0,1,2.47-2.76,5.55,5.55,0,0,1,2.2.49A13.6,13.6,0,0,1,41.15,74c1.27,1,2.44,2.14,3.63,3.24a14.73,14.73,0,0,1,1.06,1.2c.08-.44.15-.64.16-.84,0-.39,0-.79,0-1.19V.3h2.78V77.07l.21.07.49-.54c1.19-1.38,2.34-2.8,3.59-4.12a8.68,8.68,0,0,1,2.14-1.6,4.67,4.67,0,0,1,2-.57,2.45,2.45,0,0,1,2.55,2.48,4.46,4.46,0,0,1-.81,2.62,8.76,8.76,0,0,1-2.49,2.4,17.47,17.47,0,0,1-5.34,2.35l-1.38.36a5.21,5.21,0,0,1,1.62,2.83,4.56,4.56,0,0,1-.92,3.25l1.66-.08c.8,0,1.59-.14,2.38-.16a2.05,2.05,0,0,1,2.25,2c.12,1.45.25,2.91.34,4.36A16.49,16.49,0,0,1,57,94.41c9.25,2.37,16.16,7.75,20.25,16.51a28.16,28.16,0,0,1,1.88,18.65,29.23,29.23,0,0,1-56.53,1.67,28.45,28.45,0,0,1,1.69-20.82A29.09,29.09,0,0,1,39.35,96Zm38.82,27c-.12-1.42-.13-2.86-.39-4.25-2.15-11.24-8.7-18.64-19.58-22.16a16.47,16.47,0,0,0-6.66-.89c-1.88.17-3.77.26-5.65.44a15.75,15.75,0,0,0-2.83.45A27.48,27.48,0,1,0,78.17,123ZM40.86,94.78l2.74-.2,10.91-.82c.75-.06.85-.18.79-.93-.1-1.32-.21-2.65-.33-4-.06-.7-.13-.77-.86-.74-1,0-2,.14-3,.22l-10,.77c-.7.06-.78.13-.74.87.08,1.36.21,2.71.32,4.07A7.43,7.43,0,0,0,40.86,94.78ZM43.68,79l.11-.22c-.38-.4-.76-.81-1.15-1.19a20.44,20.44,0,0,0-4.12-3.24,6.49,6.49,0,0,0-1.82-.73A.89.89,0,0,0,35.64,75a4.09,4.09,0,0,0,.92,1.27A11.74,11.74,0,0,0,43.68,79Zm6.78-.77.1.19a1.45,1.45,0,0,0,.47,0c1.22-.5,2.46-1,3.63-1.54a6.89,6.89,0,0,0,2.6-2.25,4.29,4.29,0,0,0,.68-1.51c.16-.74-.39-1.21-1.13-1a3.49,3.49,0,0,0-1.07.5A22.3,22.3,0,0,0,50.46,78.25Zm-3.14,3.43A2.21,2.21,0,0,0,45.12,84a2.25,2.25,0,1,0,2.2-2.31Z"/><path class="cls-1" d="M463.05,98.92a16.27,16.27,0,0,1,4.51,6,59.47,59.47,0,0,1-11.13,7.16c-.15-.22-.27-.37-.37-.54a7.8,7.8,0,0,0-6.1-3.81,9.73,9.73,0,0,0-6.9,1.65A7.25,7.25,0,0,0,440,113.9a5.45,5.45,0,0,1-5.86,4.56,6.3,6.3,0,0,1-5.88-5,8.67,8.67,0,0,1,.88-5,64.43,64.43,0,0,0,17.58-2.33A62,62,0,0,0,463.05,98.92Z"/><path class="cls-1" d="M461.4,97.87a61.49,61.49,0,0,1-31.28,8.81c.87-3.73,7-9,12.29-10.83C449.19,93.54,457.84,95.1,461.4,97.87Z"/><path class="cls-1" d="M468.21,106.72a18.54,18.54,0,0,1,1.08,4.38,25.45,25.45,0,0,1,0,6.64,1.42,1.42,0,0,1-.6,1.08,58.51,58.51,0,0,1-12.75,7c-.12,0-.25.08-.53.16.07-.44.1-.78.17-1.11.42-1.94.85-3.88,1.26-5.82a15.42,15.42,0,0,0,.12-5.26A63.73,63.73,0,0,0,468.21,106.72Z"/><path class="cls-1" d="M452.3,139.41l1.05-4.58c.46-2,.93-3.93,1.36-5.9a1.17,1.17,0,0,1,.82-1,60.46,60.46,0,0,0,12.5-6.47c.13-.09.27-.16.55-.32-.05.42-.06.71-.12,1-.84,3.61-1.7,7.22-2.53,10.83a1.43,1.43,0,0,1-.71,1A60.27,60.27,0,0,1,453,139.32,5.58,5.58,0,0,1,452.3,139.41Z"/><path class="cls-1" d="M449.21,152.41c.32-1.34.62-2.56.9-3.78.5-2.1,1-4.19,1.47-6.29a1.24,1.24,0,0,1,1-1.07,60,60,0,0,0,11.76-4.77c.22-.12.46-.2.84-.36l-.6,2.63c-.67,2.87-1.35,5.74-2,8.61a1.39,1.39,0,0,1-.87,1.09,62.66,62.66,0,0,1-11.85,3.94A4.14,4.14,0,0,1,449.21,152.41Z"/><path class="cls-1" d="M461.74,150.49c0,.26,0,.45-.08.64-.78,3.35-1.57,6.71-2.34,10.06a1.26,1.26,0,0,1-.89,1.05A64.3,64.3,0,0,1,447.25,165c-.32.05-.64,0-1,.06,0-.24,0-.4.07-.55.75-3.13,1.52-6.25,2.25-9.38a1,1,0,0,1,.83-.82,64.09,64.09,0,0,0,12-3.77A2.29,2.29,0,0,1,461.74,150.49Z"/><path class="cls-1" d="M458.63,164c-.36,1.53-.65,2.81-.95,4.09-.1.45-.2.91-.34,1.35a6,6,0,0,1-6.71,4.06,6,6,0,0,1-4.89-6,4.5,4.5,0,0,1,.08-.52A68,68,0,0,0,458.63,164Z"/><path class="cls-1" d="M451.76,91.23a12.66,12.66,0,0,1-5.5-4,8.32,8.32,0,0,1-1-1.92,1.1,1.1,0,0,1,.26-1.37,1.08,1.08,0,0,1,1.37.14,8,8,0,0,1,1.12,1,23.66,23.66,0,0,1,3.7,5.72A1.64,1.64,0,0,1,451.76,91.23Z"/><path class="cls-1" d="M458.31,92.63a1.59,1.59,0,0,1,.25-.3A24,24,0,0,1,464.15,89a9.67,9.67,0,0,1,1.91-.46.9.9,0,0,1,1,.48,1,1,0,0,1-.17,1.11,6.27,6.27,0,0,1-.6.66C464.71,92.26,460.77,93.18,458.31,92.63Z"/><path class="cls-1" d="M255,139.56c-1.84-16-3.66-31.85-5.49-47.84l13.15-1.51c1.83,16,3.65,31.84,5.49,47.83Z"/><path class="cls-1" d="M266.12,105.93l18.28-2.1c.13,1,.26,1.94.37,2.85.49,4.32,1,8.63,1.47,12.94q.64,5.63,1.3,11.25c.15,1.25.3,2.5.43,3.76.1.91-.15,1.22-1,1.33l-12.34,1.41-4.77.55c-.51-3.58-.84-7.12-1.26-10.66s-.82-7-1.23-10.56S266.53,109.6,266.12,105.93Z"/><path class="cls-1" d="M232.53,109.79l17.22-2c1.22,10.67,2.44,21.25,3.67,32-.93.12-1.77.25-2.61.34l-13.34,1.53c-1.05.12-1.34-.11-1.47-1.2q-1.06-9.23-2.13-18.47c-.44-3.82-.86-7.64-1.29-11.46C232.56,110.32,232.56,110.13,232.53,109.79Z"/><path class="cls-1" d="M265.92,104.31c-.55-4.83-1.09-9.52-1.64-14.31l3.71-.45,11.66-1.35,4.84-.53a1.49,1.49,0,0,1,1.89,1.5c.22,1.81.41,3.62.62,5.43.18,1.58.35,3.17.55,4.74.27,2.11-.06,2.53-2.14,2.77-5.1.57-10.2,1.17-15.31,1.75Z"/><path class="cls-1" d="M247.92,91.88c.55,4.83,1.09,9.49,1.64,14.28-.8.11-1.53.23-2.27.32l-16.58,1.88c-1.36.15-1.91-.28-2.06-1.62-.38-3.32-.77-6.64-1.15-10a9.53,9.53,0,0,1-.09-1.19,1.33,1.33,0,0,1,1.26-1.5c1.57-.22,3.15-.39,4.73-.57L245,92.19C245.9,92.08,246.85,92,247.92,91.88Z"/><path class="cls-1" d="M253.51,87.79A11,11,0,0,1,247,85.61a4.38,4.38,0,0,1-1.06-1.29c-.42-.75.07-1.4.93-1.29a3.48,3.48,0,0,1,1,.32,19.26,19.26,0,0,1,5.54,4.11S253.47,87.58,253.51,87.79Z"/><path class="cls-1" d="M259.81,87c0-.15,0-.23,0-.27a20,20,0,0,1,4.47-5.27,5.15,5.15,0,0,1,1-.53.88.88,0,0,1,1,.11.86.86,0,0,1,.2,1,5.82,5.82,0,0,1-.68,1.31,9.15,9.15,0,0,1-3.65,2.83A8.23,8.23,0,0,1,259.81,87Z"/><path class="cls-1" d="M168,133.39c.3-.52.46-.83.65-1.13L177,118.52a2.26,2.26,0,0,1,.16-.26,1.88,1.88,0,0,0-1.76-3.11,21.37,21.37,0,0,1-2.17-.07l6.26-9.94c.27.49.46.83.63,1.17a26.53,26.53,0,0,0,7.13,8.82,21.06,21.06,0,0,0,10.58,4.47,1.63,1.63,0,0,1,1.41.89,29,29,0,0,0,1.65,2.72,1.35,1.35,0,0,1,0,1.7,29,29,0,0,1-6.87,7.66,40.93,40.93,0,0,1-12.54,6.54,55.56,55.56,0,0,1-11.33,2.51l-.52,0a5,5,0,0,1,.31-.74c.89-1.52,1.82-3,2.68-4.54A2.78,2.78,0,0,0,173,135a1.74,1.74,0,0,0-1.84-1.59C170.2,133.37,169.21,133.39,168,133.39Z"/><path class="cls-1" d="M202.56,126l4.5,7.4c-1,0-1.85,0-2.66,0s-1.75,0-2.23,1a2.23,2.23,0,0,0,.34,2.33q4,6.69,8,13.41l.58,1c-.81.25-44.8.34-47.14.11a3.1,3.1,0,0,1,.22-.61c1.28-2.17,2.59-4.32,3.86-6.5a1.32,1.32,0,0,1,1.23-.63,53.18,53.18,0,0,0,20.91-6.22A32.22,32.22,0,0,0,202,126.43c.09-.14.21-.26.31-.39S202.38,126,202.56,126Z"/><path class="cls-1" d="M187.38,92.77l14.37,22.34-1.44,0c-.43,0-.86,0-1.29,0a1.69,1.69,0,0,0-1.61,1.8c0,.22,0,.45,0,.8-.7-.15-1.34-.26-2-.43a20.38,20.38,0,0,1-9.84-6.09A26.24,26.24,0,0,1,181,104a1.2,1.2,0,0,1,0-1.29c2-3.18,4-6.38,6.06-9.58C187.1,93.07,187.2,93,187.38,92.77Z"/><path class="cls-1" d="M191,160.44h-7.12c0-2.43,0-4.83,0-7.2a36.21,36.21,0,0,1,7.06-.11A44.43,44.43,0,0,1,191,160.44Z"/><path class="cls-1" d="M190.47,89c.29-.35.56-.73.88-1,1.29-1.24,2.56-2.49,3.92-3.66a5.57,5.57,0,0,1,1.92-1c.85-.28,1.43.39,1.15,1.24a4.75,4.75,0,0,1-1.69,2.17A12.24,12.24,0,0,1,191.44,89c-.28.07-.57.1-.86.15Z"/><path class="cls-1" d="M183.83,89.19a12.44,12.44,0,0,1-6.34-2.68A9.47,9.47,0,0,1,176,84.65a.88.88,0,0,1,0-1.11.94.94,0,0,1,1.17-.26,9.18,9.18,0,0,1,1.5.76,23.53,23.53,0,0,1,4.93,4.73A1.6,1.6,0,0,1,183.83,89.19Z"/><path class="cls-1" d="M346,121.07c-.7,7.2-1.39,14.25-2.09,21.4a17.08,17.08,0,0,0-15.81,19.78c-.37,0-.66.07-.94.07-5.37-.18-10.74-.35-16.1-.55-1.06,0-2.11-.2-3.16-.32a4.6,4.6,0,0,1-.57-.19,17.24,17.24,0,0,0,1-18.58,7.92,7.92,0,0,1,1.13-.18c1,0,1.92,0,2.88-.05a6.13,6.13,0,0,0,6.07-5.68c.56-5.71,1.1-11.41,1.66-17.12,0-.32.1-.65.17-1.1Z"/><path class="cls-1" d="M319.2,104.62l11.57,1.15,9,.88c3.47.33,6.93.66,10.39,1,.94.1,1.28.49,1.19,1.46-.23,2.61-.49,5.22-.74,7.82l-.12,1.29c-.11,1.12-.49,1.47-1.6,1.38-1.49-.13-3-.28-4.45-.43l-9.2-.92-11.58-1.14-5.24-.49c-1.93-.17-2.15-.45-1.95-2.34.27-2.47.5-4.94.74-7.42,0-.36.07-.72.13-1.08.16-1,.45-1.23,1.46-1.18l.4,0Z"/><path class="cls-1" d="M330,162.15c-1.89-8.79,5.07-17.41,13.65-17.75,0,.42,0,.84-.09,1.25a42.61,42.61,0,0,1-.53,4.54c-1.33,5.9-5.11,9.57-10.76,11.43C331.55,161.85,330.8,162,330,162.15Z"/><path class="cls-1" d="M306.42,143.18c3.68,5.44,2.77,13.34-1,17.33a9.23,9.23,0,0,1,1-17.33Z"/><path class="cls-1" d="M330.73,102.25a11.74,11.74,0,0,1-6.53-4,4.12,4.12,0,0,1-.67-1.42c-.23-.84.34-1.41,1.16-1.13a5.77,5.77,0,0,1,1.69,1,21.32,21.32,0,0,1,3.69,4.13c.29.4.56.8.84,1.21Z"/><path class="cls-1" d="M337.42,103a5.71,5.71,0,0,1,.36-.53,25.53,25.53,0,0,1,4.69-3.79,10.49,10.49,0,0,1,1.69-.81c.8-.3,1.35-.19,1.61.27s0,1.07-.34,1.53a3.14,3.14,0,0,1-.6.66C342.77,102.1,340.28,102.71,337.42,103Z"/><path class="cls-1" d="M409.6,149.46H371l.58-.81a8.91,8.91,0,0,0,2-6.09c-.13-2.62-.3-5.23-.38-7.84a44.58,44.58,0,0,1,.77-10.69,23.1,23.1,0,0,1,1.59-5,13.52,13.52,0,0,1,11.07-8.17,24.08,24.08,0,0,1,9,.31,13.31,13.31,0,0,1,9.31,7.54,25.32,25.32,0,0,1,2.14,7.62,67.88,67.88,0,0,1,.09,13.89,31.85,31.85,0,0,0-.08,3.38,8.48,8.48,0,0,0,1.76,4.77C409,148.69,409.26,149,409.6,149.46Z"/><path class="cls-1" d="M390.49,158.63H369.6a8.77,8.77,0,0,1-.89,0c-.65-.06-1-.35-1-1,0-1.76,0-3.52,0-5.27a1,1,0,0,1,.95-1.06,6.76,6.76,0,0,1,.9,0h41.76c.24,0,.47,0,.7,0,.81.06,1.14.38,1.15,1.18,0,1.66,0,3.32,0,5,0,.87-.35,1.17-1.22,1.21H390.49Z"/><path class="cls-1" d="M381.48,160.42h15.66c-.29,2.81-4,5.65-7.48,5.78C385.93,166.34,382.09,163.67,381.48,160.42Z"/><path class="cls-1" d="M386.74,107.45a1.16,1.16,0,0,1-.37,0,12,12,0,0,1-6-2.67A9,9,0,0,1,379,103a.92.92,0,0,1,.05-1.11,1,1,0,0,1,1.09-.26,4.56,4.56,0,0,1,1.18.5,22.16,22.16,0,0,1,5.38,5.07S386.73,107.34,386.74,107.45Z"/><path class="cls-1" d="M393.53,107.41a.82.82,0,0,1,.11-.28,22.71,22.71,0,0,1,4.92-4.72,5.3,5.3,0,0,1,1.79-.78.83.83,0,0,1,1,1.21,5.23,5.23,0,0,1-1,1.56,11,11,0,0,1-5.54,2.9c-.32.08-.64.14-1,.19C393.73,107.5,393.64,107.44,393.53,107.41Z"/><path class="cls-1" d="M151.34,65.74l1.12,3.88c-.59.16-1.23.31-1.86.5a7.23,7.23,0,0,0-5.29,5.17,12.36,12.36,0,0,0-.31,4.24,41.26,41.26,0,0,0,1.43,7.31,31.65,31.65,0,0,1-.75,18.87c-.09.25-.21.49-.35.82-14.93-1-29.75-3.06-44.62-4.92a13.74,13.74,0,0,1,.26-3.82c1.21-7.67,5.22-13.64,11.2-18.4a53.41,53.41,0,0,1,14-7.77,92.73,92.73,0,0,1,18.58-5c2-.33,4.07-.58,6.1-.86A3.77,3.77,0,0,1,151.34,65.74Z"/><path class="cls-1" d="M98,103.05l5.7.7,10.36,1.3,12.13,1.51,10.16,1.27,11.83,1.46c.17,0,.33.06.49.09a1.3,1.3,0,0,1,1.2,1.62c-.26,2.17-.54,4.34-.81,6.51s-.52,4.07-.76,6.11-.58,2.19-2.51,1.95l-17.45-2.18-19.92-2.51q-6-.75-11.94-1.46l-.39-.06c-1.36-.22-1.67-.67-1.5-2q.78-6.17,1.54-12.33c0-.23.06-.46.11-.69C96.41,103.28,96.8,103,98,103.05Z"/><path class="cls-1" d="M165.45,65.56a6.09,6.09,0,1,1-6.06-6.1A6.11,6.11,0,0,1,165.45,65.56Z"/><path class="cls-1" d="M130.9,64.6a11.08,11.08,0,0,1-6.42-3.91,4.52,4.52,0,0,1-.75-1.69c-.16-.8.44-1.25,1.22-1a3,3,0,0,1,.8.39A19.69,19.69,0,0,1,130.9,64.6Z"/><path class="cls-1" d="M137.66,65.39s0-.07,0-.09a20.63,20.63,0,0,1,6.21-4.51A3.2,3.2,0,0,1,145,60.5a.88.88,0,0,1,.92,1.35A3.79,3.79,0,0,1,145,63a11,11,0,0,1-7.23,2.49C137.75,65.51,137.7,65.43,137.66,65.39Z"/><path class="cls-1" d="M78.17,123A27.51,27.51,0,1,1,43.06,96.61a15.75,15.75,0,0,1,2.83-.45c1.88-.18,3.77-.27,5.65-.44a16.47,16.47,0,0,1,6.66.89c10.88,3.52,17.43,10.92,19.58,22.16C78,120.16,78.05,121.6,78.17,123Zm-32.08-8c1,.76,1.9,1.41,2.78,2,.42.3.68.63.52,1l-2.84,1.73c-.54-.3-.55-.3-.64-.79s-.12-.72-.18-1.08c-.13-.76-.27-1.53-.43-2.49-.26.28-.42.38-.43.49s.09.46.09.69a9.85,9.85,0,0,1,.2,2.14c-1.26-.66-1.26-.66-1.45-1.89-.12-.78-.25-1.57-.37-2.35,0-.25-.11-.47-.57-.29l.38,3a2,2,0,0,1-1.56-1.82,16.82,16.82,0,0,0-.26-1.87c0-.34-.16-.66-.27-1.1-.7.56-.21,1.08-.22,1.54a14.5,14.5,0,0,0,.18,1.6l-.19.1L38.5,114a8.12,8.12,0,0,0-.1-1,1.07,1.07,0,0,0-.9-.82,1.24,1.24,0,0,0-1.31.5,1.33,1.33,0,0,0,0,1.41,1.21,1.21,0,0,0,1.3.52c.25,0,.58-.18.75-.07a16.35,16.35,0,0,1,2.31,1.73c-1.06.46-2.17.22-3.25.85a1.82,1.82,0,0,0,1.32.14c.72-.1,1.44-.22,2.16-.34s1.32.32,1.82,1l-2.64.44c-.28,0-.42.18-.22.54.26,0,.55,0,.84-.07.72-.11,1.45-.17,2.15-.34.9-.22,1.4.27,2,1l-3,.55c0,.53.28.49.56.45.91-.14,1.83-.26,2.74-.44.52-.09.91,0,1.09.33l-.85,3.28c-.29.24-.63.08-1-.17l-2.41-1.76c-.27-.19-.47-.17-.6.23l2.44,1.88a2.14,2.14,0,0,1-2.58-.35,20.81,20.81,0,0,0-1.84-1.36c-.28-.2-.47-.15-.6.22l2.45,1.89a2.16,2.16,0,0,1-2.59-.35,20.81,20.81,0,0,0-1.84-1.36c-.28-.21-.47-.13-.61.22l2.56,2-2.48.42a1.11,1.11,0,0,1-1.07-.29,1.64,1.64,0,0,0-1.08-.36,1.14,1.14,0,0,0-1,1.06,1.25,1.25,0,0,0,.7,1.31,1.3,1.3,0,0,0,1.52-.38c.18-.23.31-.62.53-.67.91-.21,1.84-.32,3-.51l-.67,1c-.33.45-.67.9-1,1.37-.21.3-.11.49.29.54.58-.79,1.22-1.56,1.74-2.4a2,2,0,0,1,2.14-.81c-.27.39-.46.69-.67,1s-.63.85-.93,1.29-.09.49.31.53c.57-.79,1.2-1.56,1.73-2.4a2,2,0,0,1,2.16-.8L42,127.21l.48.29,1.9-2.61c.26-.37.54-.68.94-.54l1.82,3.07c-1.22.85-2.83.46-4.16,1.06.29.41.29.42.48.39.55-.08,1.1-.19,1.66-.27.3,0,.61,0,1-.06a2,2,0,0,1-1.91,1.51,15.94,15.94,0,0,0-2.35.37c-.16,0-.29.21-.43.32l.11.25,3.08-.41c-.39.95-.88,1.51-1.84,1.57a16.84,16.84,0,0,0-1.87.27c-.34.05-.67.15-1,.23.05.19.06.31.07.31l3-.19c0,.08,0,.17,0,.21-.34.49-.7,1-1,1.47a1.6,1.6,0,0,1-1.4.89,1.12,1.12,0,0,0-1,1.45,1.24,1.24,0,0,0,2.43-.5c0-.28-.16-.64,0-.84.49-.77,1.06-1.49,1.66-2.32.5,1.1.27,2.22.8,3.15.5-.24.31-.61.27-.9-.11-.86-.28-1.7-.38-2.56a1.44,1.44,0,0,1,1-1.57l.52,2.84c.58,0,.49-.3.45-.55a18.55,18.55,0,0,0-.38-2.35,2,2,0,0,1,.84-2.17c.49,1,.2,2.13.87,3.25.11-.39.22-.56.2-.72-.13-.92-.29-1.83-.43-2.75-.06-.42-.15-.87.24-1.07l3.35.81c.12.55.12.56-.2,1-.56.78-1.13,1.56-1.7,2.33-.2.28-.17.48.21.6.72-.7,1.1-1.69,1.93-2.34a2,2,0,0,1-.35,2.44c-.5.56-.9,1.22-1.35,1.83-.2.26-.23.48.21.66l1.87-2.53c.32,1,.45,1.74-.22,2.47a24.5,24.5,0,0,0-1.47,2c-.19.26-.22.48.18.61.72-.69,1.12-1.67,1.89-2.33.08.07.12.08.12.11.11.61.19,1.24.33,1.85a1.5,1.5,0,0,1-.34,1.53,1.18,1.18,0,0,0,.69,1.93,1.23,1.23,0,0,0,1.42-.65,1.25,1.25,0,0,0-.42-1.58c-.21-.16-.56-.27-.6-.46-.21-.92-.33-1.86-.52-3l1,.67c.46.32.91.66,1.37,1,.24.16.44.13.55-.29-.76-.56-1.53-1.19-2.36-1.71a2,2,0,0,1-.86-2.17c.38.26.68.45,1,.66.46.32.9.67,1.37,1,.3.19.42,0,.47-.35-.78-.57-1.55-1.19-2.38-1.72a2,2,0,0,1-.81-2.15l2.53,1.79c.4-.41.16-.56-.06-.73l-2.25-1.64c-.33-.24-.65-.48-.53-.86l3-1.82a.81.81,0,0,1,.51.77c.13.92.27,1.84.43,2.75,0,.26,0,.65.62.48-.06-.46-.12-.94-.18-1.42s-.13-1-.21-1.6c1.34.66,1.36.69,1.53,1.84.12.82.25,1.64.4,2.45,0,.15.19.27.29.4l.2-.06c.15-1-.36-2-.27-3.12.81.39,1.42.8,1.48,1.74a20.64,20.64,0,0,0,.3,2.07c.06.3.16.6.23.89l.3-.07c-.06-1-.12-2-.19-3.08a5.9,5.9,0,0,1,.67.38c.8.66,1.92,1,2,2.37,0,.57.73.84,1.34.73a1.15,1.15,0,0,0,1-1.17,1.18,1.18,0,0,0-1.41-1.26c-.29,0-.65.18-.85.06a16.37,16.37,0,0,1-2.34-1.73c1.09-.41,2.16-.25,3.08-.71-.11-.55-.47-.36-.73-.33-.85.12-1.7.27-2.55.39s-1.25-.14-1.72-1c.5-.09,1-.19,1.46-.27a3.56,3.56,0,0,0,1.45-.35c-.11-.51-.41-.37-.65-.34l-2.46.38c-1,.15-1.32,0-1.94-.94l.89-.18c.55-.09,1.11-.16,1.66-.26.26,0,.44-.18.23-.54a3.39,3.39,0,0,0-.44,0c-.85.13-1.7.27-2.56.39-.45.07-.93.19-1.17-.24l.81-3.39c.34-.26.67,0,1,.21l2.33,1.7c.25.19.47.24.64-.22l-2.49-1.85a2.1,2.1,0,0,1,2.52.27,21.17,21.17,0,0,0,1.92,1.42c.25.18.48.24.59-.23l-2.41-1.87a2.09,2.09,0,0,1,2.5.3,19.09,19.09,0,0,0,1.84,1.37c.22.16.45.32.65-.12-.63-.79-1.71-1.12-2.39-2,.85-.14,1.58-.22,2.29-.36a1.11,1.11,0,0,1,1.16.29,1.67,1.67,0,0,0,1.08.33,1.11,1.11,0,0,0,1-1.07,1.22,1.22,0,0,0-.72-1.3,1.26,1.26,0,0,0-1.51.41c-.18.23-.33.6-.54.65-.9.21-1.81.31-2.93.49.27-.43.4-.69.57-.92.34-.49.7-1,1-1.45.16-.22.17-.43-.2-.56a5,5,0,0,0-.43.48c-.52.68-1,1.39-1.54,2.08s-1,.76-1.92.52l.63-.91c.31-.43.64-.84.92-1.29.06-.11,0-.31-.1-.62-.26.28-.43.43-.56.6-.5.67-1,1.32-1.47,2s-1.17.79-2,.71c.49-1,1.31-1.67,1.69-2.58-.44-.34-.56,0-.71.17-.56.74-1.11,1.49-1.65,2.24-.28.39-.59.63-.89.49l-1.82-2.83c.31-.56.31-.57.88-.67.85-.14,1.7-.25,2.55-.4a6.42,6.42,0,0,0,.9-.29c-.64-.55-1.15-.17-1.63-.17a14.29,14.29,0,0,0-1.7.21c.72-1.36.72-1.35,2-1.54.75-.11,1.51-.23,2.26-.37a3,3,0,0,0,.63-.32,2.27,2.27,0,0,0-1.65-.07l-1.73.21c.44-.92.92-1.54,1.89-1.55a5.43,5.43,0,0,0,.69-.09c.71-.11,1.42-.24,2.1-.36.06-.49-.14-.53-.47-.47l-2.52.37c0-.2,0-.28,0-.32.36-.52.73-1,1.09-1.54a1.32,1.32,0,0,1,1.17-.73,1.16,1.16,0,0,0,1.13-1.44,1.2,1.2,0,0,0-1.45-1,1.22,1.22,0,0,0-1,1.57c0,.22.15.51,0,.66a22.08,22.08,0,0,1-1.81,2.44c-.17-1.07-.31-1.91-.45-2.76,0-.25-.1-.47-.55-.3,0,.32,0,.67.08,1,.09.66.18,1.32.33,2a2,2,0,0,1-1,2.06l-.56-3.07c-.59.13-.45.48-.41.73.11.82.2,1.65.38,2.46s-.27,1.39-.95,2l-.55-3c-.56.05-.49.33-.45.59.15.92.28,1.84.44,2.75.1.52,0,.9-.29,1-1.07-.21-1.94-.4-2.81-.55-.56-.09-.79-.45-.55-1a3.66,3.66,0,0,1,.4-.57c.5-.7,1-1.39,1.52-2.09.19-.25.26-.47-.2-.66l-1.86,2.48a2,2,0,0,1,.19-2.41c.55-.61,1-1.33,1.49-2,.19-.26.24-.48-.21-.64l-1.85,2.43a2,2,0,0,1,.25-2.47c.53-.59,1-1.27,1.42-1.91.19-.26.24-.48-.25-.61-.27.37-.56.76-.86,1.15s-.62.81-1.06,1.39c-.12-.73-.2-1.22-.29-1.7a2.12,2.12,0,0,1,.38-2.19c.45-.45.14-1.28-.43-1.62a1.3,1.3,0,0,0-1.62.28,1.25,1.25,0,0,0,.13,1.71,6.84,6.84,0,0,0,.77.5l.45,3.09-1.09-.73c-.43-.31-.84-.65-1.29-.92-.13-.08-.36,0-.54,0l0,.22c.77.57,1.51,1.2,2.32,1.69a2.13,2.13,0,0,1,1,2.24l-.88-.59c-.49-.35-1-.71-1.45-1-.26-.17-.44-.06-.51.32.75.55,1.48,1.17,2.29,1.67a2.11,2.11,0,0,1,.94,2.24,14.41,14.41,0,0,0-1.46-1C47.22,115.29,47,114.59,46.09,115.06Z"/><path class="cls-1" d="M40.86,94.78a7.43,7.43,0,0,1-.16-.73c-.11-1.36-.24-2.71-.32-4.07,0-.74,0-.81.74-.87l10-.77c1-.08,2-.17,3-.22.73,0,.8,0,.86.74.12,1.32.23,2.65.33,4,.06.75,0,.87-.79.93l-10.91.82Z"/><path class="cls-1" d="M43.68,79a11.74,11.74,0,0,1-7.12-2.79A4.09,4.09,0,0,1,35.64,75a.89.89,0,0,1,1.06-1.32,6.49,6.49,0,0,1,1.82.73,20.44,20.44,0,0,1,4.12,3.24c.39.38.77.79,1.15,1.19Z"/><path class="cls-1" d="M50.46,78.25a22.3,22.3,0,0,1,5.28-5.68,3.49,3.49,0,0,1,1.07-.5c.74-.19,1.29.28,1.13,1a4.29,4.29,0,0,1-.68,1.51,6.89,6.89,0,0,1-2.6,2.25c-1.17.58-2.41,1-3.63,1.54a1.45,1.45,0,0,1-.47,0Z"/><path class="cls-1" d="M47.32,81.68a2.25,2.25,0,0,1,2.29,2.24,2.25,2.25,0,0,1-4.49.07A2.21,2.21,0,0,1,47.32,81.68Z"/><path d="M46.09,115.06c.86-.47,1.13.23,1.55.45a14.41,14.41,0,0,1,1.46,1,2.11,2.11,0,0,0-.94-2.24c-.81-.5-1.54-1.12-2.29-1.67.07-.38.25-.49.51-.32.49.34,1,.7,1.45,1l.88.59a2.13,2.13,0,0,0-1-2.24c-.81-.49-1.55-1.12-2.32-1.69l0-.22c.18,0,.41-.1.54,0,.45.27.86.61,1.29.92l1.09.73L48,108.32a6.84,6.84,0,0,1-.77-.5,1.25,1.25,0,0,1-.13-1.71,1.3,1.3,0,0,1,1.62-.28c.57.34.88,1.17.43,1.62a2.12,2.12,0,0,0-.38,2.19c.09.48.17,1,.29,1.7.44-.58.76-1,1.06-1.39s.59-.78.86-1.15c.49.13.44.35.25.61-.47.64-.89,1.32-1.42,1.91a2,2,0,0,0-.25,2.47l1.85-2.43c.45.16.4.38.21.64-.5.66-.94,1.38-1.49,2a2,2,0,0,0-.19,2.41l1.86-2.48c.46.19.39.41.2.66-.51.7-1,1.39-1.52,2.09a3.66,3.66,0,0,0-.4.57c-.24.52,0,.88.55,1,.87.15,1.74.34,2.81.55.29-.14.39-.52.29-1-.16-.91-.29-1.83-.44-2.75,0-.26-.11-.54.45-.59l.55,3c.68-.59,1.16-1.08.95-2s-.27-1.64-.38-2.46c0-.25-.18-.6.41-.73l.56,3.07a2,2,0,0,0,1-2.06c-.15-.64-.24-1.3-.33-2,0-.34,0-.69-.08-1,.45-.17.51,0,.55.3.14.85.28,1.69.45,2.76a22.08,22.08,0,0,0,1.81-2.44c.1-.15,0-.44,0-.66a1.22,1.22,0,0,1,1-1.57,1.2,1.2,0,0,1,1.45,1,1.16,1.16,0,0,1-1.13,1.44,1.32,1.32,0,0,0-1.17.73c-.36.52-.73,1-1.09,1.54,0,0,0,.12,0,.32l2.52-.37c.33-.06.53,0,.47.47-.68.12-1.39.25-2.1.36a5.43,5.43,0,0,1-.69.09c-1,0-1.45.63-1.89,1.55l1.73-.21a2.27,2.27,0,0,1,1.65.07,3,3,0,0,1-.63.32c-.75.14-1.51.26-2.26.37-1.27.19-1.27.18-2,1.54a14.29,14.29,0,0,1,1.7-.21c.48,0,1-.38,1.63.17a6.42,6.42,0,0,1-.9.29c-.85.15-1.7.26-2.55.4-.57.1-.57.11-.88.67l1.82,2.83c.3.14.61-.1.89-.49.54-.75,1.09-1.5,1.65-2.24.15-.2.27-.51.71-.17-.38.91-1.2,1.59-1.69,2.58.85.08,1.53,0,2-.71s1-1.34,1.47-2c.13-.17.3-.32.56-.6,0,.31.16.51.1.62-.28.45-.61.86-.92,1.29l-.63.91c1,.24,1.44.11,1.92-.52s1-1.4,1.54-2.08a5,5,0,0,1,.43-.48c.37.13.36.34.2.56-.35.49-.71,1-1,1.45-.17.23-.3.49-.57.92,1.12-.18,2-.28,2.93-.49.21,0,.36-.42.54-.65a1.26,1.26,0,0,1,1.51-.41,1.22,1.22,0,0,1,.72,1.3,1.11,1.11,0,0,1-1,1.07,1.67,1.67,0,0,1-1.08-.33,1.11,1.11,0,0,0-1.16-.29c-.71.14-1.44.22-2.29.36.68.93,1.76,1.26,2.39,2-.2.44-.43.28-.65.12a19.09,19.09,0,0,1-1.84-1.37,2.09,2.09,0,0,0-2.5-.3L62.35,124c-.11.47-.34.41-.59.23a21.17,21.17,0,0,1-1.92-1.42,2.1,2.1,0,0,0-2.52-.27l2.49,1.85c-.17.46-.39.41-.64.22l-2.33-1.7c-.33-.25-.66-.47-1-.21L55,126.11c.24.43.72.31,1.17.24.86-.12,1.71-.26,2.56-.39a3.39,3.39,0,0,1,.44,0c.21.36,0,.5-.23.54-.55.1-1.11.17-1.66.26l-.89.18c.62.93,1,1.09,1.94.94l2.46-.38c.24,0,.54-.17.65.34a3.56,3.56,0,0,1-1.45.35c-.49.08-1,.18-1.46.27.47.84.9,1.09,1.72,1s1.7-.27,2.55-.39c.26,0,.62-.22.73.33-.92.46-2,.3-3.08.71a16.37,16.37,0,0,0,2.34,1.73c.2.12.56,0,.85-.06A1.18,1.18,0,0,1,65.08,133a1.15,1.15,0,0,1-1,1.17c-.61.11-1.32-.16-1.34-.73,0-1.36-1.16-1.71-2-2.37a5.9,5.9,0,0,0-.67-.38c.07,1.11.13,2.09.19,3.08l-.3.07c-.07-.29-.17-.59-.23-.89a20.64,20.64,0,0,1-.3-2.07c-.06-.94-.67-1.35-1.48-1.74-.09,1.1.42,2.1.27,3.12l-.2.06c-.1-.13-.26-.25-.29-.4-.15-.81-.28-1.63-.4-2.45-.17-1.15-.19-1.18-1.53-1.84.08.58.14,1.09.21,1.6s.12,1,.18,1.42c-.59.17-.57-.22-.62-.48-.16-.91-.3-1.83-.43-2.75a.81.81,0,0,0-.51-.77l-3,1.82c-.12.38.2.62.53.86L54.46,131c.22.17.46.32.06.73L52,129.91a2,2,0,0,0,.81,2.15c.83.53,1.6,1.15,2.38,1.72,0,.35-.17.54-.47.35-.47-.31-.91-.66-1.37-1-.29-.21-.59-.4-1-.66a2,2,0,0,0,.86,2.17c.83.52,1.6,1.15,2.36,1.71-.11.42-.31.45-.55.29-.46-.33-.91-.67-1.37-1l-1-.67c.19,1.16.31,2.1.52,3,0,.19.39.3.6.46a1.25,1.25,0,0,1,.42,1.58,1.23,1.23,0,0,1-1.42.65,1.18,1.18,0,0,1-.69-1.93,1.5,1.5,0,0,0,.34-1.53c-.14-.61-.22-1.24-.33-1.85,0,0,0,0-.12-.11-.77.66-1.17,1.64-1.89,2.33-.4-.13-.37-.35-.18-.61a24.5,24.5,0,0,1,1.47-2c.67-.73.54-1.46.22-2.47l-1.87,2.53c-.44-.18-.41-.4-.21-.66.45-.61.85-1.27,1.35-1.83a2,2,0,0,0,.35-2.44c-.83.65-1.21,1.64-1.93,2.34-.38-.12-.41-.32-.21-.6.57-.77,1.14-1.55,1.7-2.33.32-.45.32-.46.2-1l-3.35-.81c-.39.2-.3.65-.24,1.07.14.92.3,1.83.43,2.75,0,.16-.09.33-.2.72-.67-1.12-.38-2.26-.87-3.25a2,2,0,0,0-.84,2.17,18.55,18.55,0,0,1,.38,2.35c0,.25.13.56-.45.55l-.52-2.84a1.44,1.44,0,0,0-1,1.57c.1.86.27,1.7.38,2.56,0,.29.23.66-.27.9-.53-.93-.3-2.05-.8-3.15-.6.83-1.17,1.55-1.66,2.32-.12.2,0,.56,0,.84a1.24,1.24,0,0,1-2.43.5,1.12,1.12,0,0,1,1-1.45,1.6,1.6,0,0,0,1.4-.89c.32-.5.68-1,1-1.47,0,0,0-.13,0-.21L40,133s0-.12-.07-.31c.33-.08.66-.18,1-.23a16.84,16.84,0,0,1,1.87-.27c1-.06,1.45-.62,1.84-1.57l-3.08.41-.11-.25c.14-.11.27-.29.43-.32a15.94,15.94,0,0,1,2.35-.37,2,2,0,0,0,1.91-1.51c-.37,0-.68,0-1,.06-.56.08-1.11.19-1.66.27-.19,0-.19,0-.48-.39,1.33-.6,2.94-.21,4.16-1.06l-1.82-3.07c-.4-.14-.68.17-.94.54l-1.9,2.61-.48-.29,1.83-2.56a2,2,0,0,0-2.16.8c-.53.84-1.16,1.61-1.73,2.4-.4,0-.53-.21-.31-.53s.63-.86.93-1.29.4-.59.67-1a2,2,0,0,0-2.14.81c-.52.84-1.16,1.61-1.74,2.4-.4,0-.5-.24-.29-.54.32-.47.66-.92,1-1.37l.67-1c-1.15.19-2.08.3-3,.51-.22,0-.35.44-.53.67a1.3,1.3,0,0,1-1.52.38,1.25,1.25,0,0,1-.7-1.31,1.14,1.14,0,0,1,1-1.06,1.64,1.64,0,0,1,1.08.36,1.11,1.11,0,0,0,1.07.29l2.48-.42-2.56-2c.14-.35.33-.43.61-.22a20.81,20.81,0,0,1,1.84,1.36,2.16,2.16,0,0,0,2.59.35l-2.45-1.89c.13-.37.32-.42.6-.22a20.81,20.81,0,0,1,1.84,1.36,2.14,2.14,0,0,0,2.58.35L41.26,122c.13-.4.33-.42.6-.23l2.41,1.76c.35.25.69.41,1,.17l.85-3.28c-.18-.35-.57-.42-1.09-.33-.91.18-1.83.3-2.74.44-.28,0-.55.08-.56-.45l3-.55c-.62-.68-1.12-1.17-2-1-.7.17-1.43.23-2.15.34-.29,0-.58,0-.84.07-.2-.36-.06-.49.22-.54l2.64-.44c-.5-.67-1-1.14-1.82-1s-1.44.24-2.16.34a1.82,1.82,0,0,1-1.32-.14c1.08-.63,2.19-.39,3.25-.85a16.35,16.35,0,0,0-2.31-1.73c-.17-.11-.5,0-.75.07a1.21,1.21,0,0,1-1.3-.52,1.33,1.33,0,0,1,0-1.41,1.24,1.24,0,0,1,1.31-.5,1.07,1.07,0,0,1,.9.82,8.12,8.12,0,0,1,.1,1l2.33,1.71.19-.1a14.5,14.5,0,0,1-.18-1.6c0-.46-.48-1,.22-1.54.11.44.22.76.27,1.1a16.82,16.82,0,0,1,.26,1.87,2,2,0,0,0,1.56,1.82l-.38-3c.46-.18.53,0,.57.29.12.78.25,1.57.37,2.35.19,1.23.19,1.23,1.45,1.89a9.85,9.85,0,0,0-.2-2.14c0-.23-.1-.46-.09-.69s.17-.21.43-.49c.16,1,.3,1.73.43,2.49.06.36.1.72.18,1.08s.1.49.64.79l2.84-1.73c.16-.38-.1-.71-.52-1C48,116.47,47.12,115.82,46.09,115.06Zm9.08,7.73-1.45.19c-1,.15-1,.15-1.17,1.34a10,10,0,0,0,2,1.37A3.89,3.89,0,0,0,55.17,122.79Zm-4.6,2.67-1.15-.27-1.46,2a4.09,4.09,0,0,0,3,.68Zm-2.15-1.65-2.48.41a4.23,4.23,0,0,0,1.57,2.6l1.47-2Zm2.71,1.6.44,2.45a4.2,4.2,0,0,0,2.58-1.62l-2-1.47Zm2.34-5.73-1.47,2,.62.91,2.48-.4A4,4,0,0,0,53.47,119.68Zm-.46-.37a4,4,0,0,0-2.91-.66l.42,2.49,1,.18Zm-6.31,1.48A2.89,2.89,0,0,0,46,123.6l2.34-.38.28-1Zm2.83-2.07A4.15,4.15,0,0,0,47,120.26l2,1.49.91-.55Z"/><path class="cls-1" d="M55.17,122.79a3.89,3.89,0,0,1-.63,2.9,10,10,0,0,1-2-1.37c.12-1.19.12-1.19,1.17-1.34Z"/><path class="cls-1" d="M50.57,125.46,51,127.9a4.09,4.09,0,0,1-3-.68l1.46-2Z"/><path class="cls-1" d="M48.42,123.81l.56,1-1.47,2a4.23,4.23,0,0,1-1.57-2.6Z"/><path class="cls-1" d="M51.13,125.41l1-.64,2,1.47a4.2,4.2,0,0,1-2.58,1.62Z"/><path class="cls-1" d="M53.47,119.68a4,4,0,0,1,1.63,2.5l-2.48.4-.62-.91Z"/><path class="cls-1" d="M53,119.31l-1.47,2-1-.18-.42-2.49A4,4,0,0,1,53,119.31Z"/><path class="cls-1" d="M46.7,120.79l1.94,1.42-.28,1L46,123.6A2.89,2.89,0,0,1,46.7,120.79Z"/><path class="cls-1" d="M49.53,118.72l.37,2.48-.91.55-2-1.49A4.15,4.15,0,0,1,49.53,118.72Z"/></g></g></svg>